<svg id="Layer_1" data-name="Layer 1" xmlns="http://www.w3.org/2000/svg" viewBox="0 0 220 63.11"><defs><style>.cls-1{fill:#fff;}.cls-2{fill:#3fa3db;}.cls-3,.cls-4{fill:#212b35;}.cls-4{stroke:#000;stroke-miterlimit:10;stroke-width:0.3px;}</style></defs><path class="cls-1" d="M62.62.42H215.47a4.11,4.11,0,0,1,4.11,4.11v54a4.11,4.11,0,0,1-4.11,4.11H62.62a0,0,0,0,1,0,0V.42A0,0,0,0,1,62.62.42Z"/><path class="cls-2" d="M215.47,63.11H62.2V0H215.47A4.53,4.53,0,0,1,220,4.53V58.58A4.53,4.53,0,0,1,215.47,63.11ZM63,62.27H215.47a3.69,3.69,0,0,0,3.69-3.69v-54A3.7,3.7,0,0,0,215.47.84H63Z"/><path class="cls-2" d="M.42.42H62.64a4.11,4.11,0,0,1,4.11,4.11v54a4.11,4.11,0,0,1-4.11,4.11H.42a0,0,0,0,1,0,0V.42A0,0,0,0,1,.42.42Z" transform="translate(67.18 63.11) rotate(180)"/><path class="cls-2" d="M67.18,63.11H4.53A4.53,4.53,0,0,1,0,58.58v-54A4.53,4.53,0,0,1,4.53,0H67.18ZM4.53.84A3.7,3.7,0,0,0,.84,4.53V58.58a3.69,3.69,0,0,0,3.69,3.69h61.8V.84Z"/><path class="cls-1" d="M31.49,9.52C16.55,9.35,6.65,14.58,6.65,14.81c.91,31.72,24.84,41.43,24.84,41.43v0s23.93-9.71,24.83-41.43C56.33,14.58,46.42,9.35,31.49,9.52ZM19.62,23.9h6.76l3.21,6.8L26.35,37ZM33.41,43.05H29.56l-1.31-2.59,3.24-6.25,8-16.55h6.75Z"/><path class="cls-2" d="M149.69,14h3.65V31h-3.65V29.7a4.23,4.23,0,0,1-3.52,1.72,5.48,5.48,0,0,1-4-1.6,6.16,6.16,0,0,1-1.69-4.4,6.13,6.13,0,0,1,1.79-4.53,5,5,0,0,1,3.83-1.52A4.07,4.07,0,0,1,149.69,21Zm-.61,13.49a3,3,0,0,0,.87-2.07,2.88,2.88,0,0,0-.82-2,3,3,0,0,0-2.07-.86,2.92,2.92,0,0,0-1.95.78,3.11,3.11,0,0,0-.89,2.15,2.82,2.82,0,0,0,2.84,2.84A2.77,2.77,0,0,0,149.08,27.44Z"/><path class="cls-2" d="M139.19,26h-8.43a3.08,3.08,0,0,0,.69,1.92,2.42,2.42,0,0,0,1.87.71,3,3,0,0,0,1.47-.33,2.2,2.2,0,0,0,.78-.94l3.44.36a5,5,0,0,1-2.17,2.83,6.71,6.71,0,0,1-3.57.84,5.88,5.88,0,0,1-4.51-1.62,6.06,6.06,0,0,1-1.69-4.36A6.4,6.4,0,0,1,128.79,21a5.88,5.88,0,0,1,4.33-1.62,6,6,0,0,1,4.48,1.69,6.45,6.45,0,0,1,1.59,4.59Zm-3.37-2.18a2.84,2.84,0,0,0-.73-1.32,2.45,2.45,0,0,0-1.72-.63,2.5,2.5,0,0,0-1.85.73,2.54,2.54,0,0,0-.63,1.22Z"/><polygon class="cls-2" points="83.41 20.35 83.41 16.86 81.78 16.86 79.93 16.86 79.92 16.86 79.92 20.35 78.79 20.35 78.79 23.16 79.92 23.16 79.92 31.14 79.93 31.14 81.78 31.14 83.41 31.14 83.41 23.16 85.56 23.16 85.56 20.35 83.41 20.35"/><polygon class="cls-2" points="123.82 20.35 123.82 16.86 122.19 16.86 120.34 16.86 120.33 16.86 120.33 20.35 119.19 20.35 119.19 23.16 120.33 23.16 120.33 31.14 120.34 31.14 122.19 31.14 123.82 31.14 123.82 23.16 125.97 23.16 125.97 20.35 123.82 20.35"/><path class="cls-2" d="M86.69,19.82h3.67v1.79A4,4,0,0,1,91.79,20a3.45,3.45,0,0,1,2-.49,3.63,3.63,0,0,1,1.2.18l-.2,3.44a3.54,3.54,0,0,0-1.66-.41,2.43,2.43,0,0,0-1.84.77,4.35,4.35,0,0,0-.89,3.06V31.2H86.69Z"/><path class="cls-3" d="M175.89,19.82h3.67v1.79A4,4,0,0,1,181,20a3.47,3.47,0,0,1,2-.49,3.57,3.57,0,0,1,1.19.18l-.2,3.44a3.51,3.51,0,0,0-1.66-.41,2.39,2.39,0,0,0-1.83.77,4.31,4.31,0,0,0-.9,3.06V31.2h-3.67Z"/><path class="cls-2" d="M103.54,29.74a5.07,5.07,0,0,1-3.87,1.63c-2.56,0-3.7-1.44-3.7-3.51v-8h3.58V26.4c0,1.35.7,1.81,1.86,1.81a2.67,2.67,0,0,0,2.13-1.09V19.87h3.58V31.09h-3.58Z"/><path class="cls-2" d="M109.6,27.19a7,7,0,0,0,4,1.48c1.07,0,1.51-.34,1.51-.83s-.76-.79-1.93-1c-1.9-.32-4.59-.72-4.59-3.57,0-2,1.69-3.7,4.8-3.7A7.9,7.9,0,0,1,118,21.08l-1.37,2.37a5,5,0,0,0-3.29-1.23c-.84,0-1.42.28-1.42.76s.6.7,1.79.91c1.9.33,4.74.79,4.74,3.76,0,2.14-1.89,3.72-5.11,3.72a8.38,8.38,0,0,1-5.25-1.72Z"/><path class="cls-3" d="M162.84,25.38a6.12,6.12,0,1,1,6.11,5.9A5.79,5.79,0,0,1,162.84,25.38Zm8.57,0a2.45,2.45,0,1,0-4.88,0,2.46,2.46,0,1,0,4.88,0Z"/><path class="cls-3" d="M199.26,24.31a1.35,1.35,0,0,0-1.49-1.51,2.62,2.62,0,0,0-2,1.09v7.25h-3.58V24.31a1.34,1.34,0,0,0-1.48-1.51,2.64,2.64,0,0,0-2,1.09v7.25h-3.58V19.92h3.58v1.37a5,5,0,0,1,3.69-1.65,3,3,0,0,1,3.18,2,4.83,4.83,0,0,1,3.88-2A3,3,0,0,1,202.81,23v8.13h-3.55Z"/><path class="cls-3" d="M161.22,18.19a2,2,0,0,1,1,.26V15.5a5.91,5.91,0,0,0-1.59-.2,3.79,3.79,0,0,0-4,3.94l0,1v.07H155.4v2.81h1.14v8H160v-8h2.16V20.35H160v-.88A1.12,1.12,0,0,1,161.22,18.19Z"/><path class="cls-4" d="M81.73,47.59,80,38.2h.89l1.53,8.49,5.3-8.49h1l-5.91,9.39Z"/><path class="cls-4" d="M88,47.59,90,38.2h6l-.15.73H90.66l-.76,3.48h5l-.16.73h-5l-.83,3.71h5.15l-.16.74Z"/><path class="cls-4" d="M101.45,47.59,99.67,43.7H97.55l-.86,3.89h-.8L98,38.2h3.22a2.42,2.42,0,0,1,2.55,2.36,3.07,3.07,0,0,1-3.21,3.1l1.84,3.93ZM100.34,43a2.32,2.32,0,0,0,2.52-2.37,1.74,1.74,0,0,0-1.76-1.67H98.6l-.88,4h2.62Z"/><path class="cls-4" d="M104.25,47.59l2.07-9.39h.8l-2.07,9.39Z"/><path class="cls-4" d="M107.39,47.59l2.07-9.39h6l-.15.73H110.1l-.76,3.48h5l-.16.73h-5l-1,4.45Z"/><path class="cls-4" d="M115,47.59l2.07-9.39h.8l-2.07,9.39Z"/><path class="cls-4" d="M118.16,47.59l2.07-9.39h6l-.15.73h-5.16l-.76,3.48h5l-.17.73h-5l-.83,3.71h5.16l-.16.74Z"/><path class="cls-4" d="M126.1,47.59l2.06-9.39h2.93a3.84,3.84,0,0,1,3.82,4,5.42,5.42,0,0,1-5.83,5.4Zm3.12-.74a4.6,4.6,0,0,0,4.84-4.63,3.12,3.12,0,0,0-3.12-3.29h-2.13l-1.76,7.92h2.17Z"/><path class="cls-4" d="M140,43.69A5.4,5.4,0,0,1,145.23,38a4,4,0,0,1,3.68,2l-.77.35a3.21,3.21,0,0,0-3-1.64c-2.14,0-4.28,1.89-4.28,4.89A3.17,3.17,0,0,0,144.28,47,4,4,0,0,0,146.94,46l.57.48a4.68,4.68,0,0,1-3.27,1.33A4,4,0,0,1,140,43.69Z"/><path class="cls-4" d="M149.49,43.69A5.42,5.42,0,0,1,154.7,38a3.92,3.92,0,0,1,4.21,4.07,5.42,5.42,0,0,1-5.2,5.65A3.93,3.93,0,0,1,149.49,43.69ZM158,42.14a3.2,3.2,0,0,0-3.41-3.37c-2.28,0-4.27,2-4.27,4.89a3.19,3.19,0,0,0,3.4,3.36A4.59,4.59,0,0,0,158,42.14Z"/><path class="cls-4" d="M166.43,47.59l-4.12-8.14-1.8,8.14h-.8l2.07-9.39h.82l4.09,8,1.79-8h.8l-2.07,9.39Z"/><path class="cls-4" d="M169.48,46.11l.59-.58A3.64,3.64,0,0,0,173.14,47a2.12,2.12,0,0,0,2.36-2c0-2.07-4.68-1.7-4.68-4.32A2.92,2.92,0,0,1,174,38a3.84,3.84,0,0,1,3.24,1.47l-.6.56a3.18,3.18,0,0,0-2.71-1.3,2.08,2.08,0,0,0-2.22,1.81c0,1.88,4.7,1.63,4.7,4.3a3,3,0,0,1-3.32,2.88A4.28,4.28,0,0,1,169.48,46.11Z"/><path class="cls-4" d="M177.73,47.59l2.07-9.39h5.95l-.15.73h-5.15l-.76,3.48h5l-.17.73h-5l-.83,3.71h5.15l-.16.74Z"/><path class="cls-4" d="M192.38,47.59l-4.11-8.14-1.8,8.14h-.8l2.07-9.39h.81l4.1,8,1.79-8h.8l-2.07,9.39Z"/><path class="cls-4" d="M197.9,47.59l1.92-8.66h-3.07l.15-.73h7l-.16.73h-3.07l-1.91,8.66Z"/></svg>